<svg xmlns="http://www.w3.org/2000/svg" width="24" height="24" viewBox="0 0 24 24"><path d="M5.483 19.604A5.431 5.431 0 0 1 .05 14.172a5.431 5.431 0 0 1 5.432-5.43C6.569 6.188 9.067 4.395 12 4.395c3.726 0 6.778 2.89 7.06 6.55l.544-.032a4.345 4.345 0 0 1 4.345 4.345 4.345 4.345 0 0 1-4.345 4.345H5.483m14.12-6.518h-2.172V12A5.431 5.431 0 0 0 12 6.569a5.435 5.435 0 0 0-5.366 4.551 3.38 3.38 0 0 0-1.151-.206 3.259 3.259 0 0 0-3.26 3.258 3.259 3.259 0 0 0 3.26 3.26h14.12a2.172 2.172 0 0 0 2.173-2.173 2.172 2.172 0 0 0-2.172-2.173M13.086 12h-2.172V7.655h2.172V12m0 4.345h-2.172v-2.173h2.172" fill="#fff"/></svg>