<svg xmlns="http://www.w3.org/2000/svg" width="24" height="24" viewBox="0 0 24 24"><path d="M5.497 19.587a5.42 5.42 0 0 1-5.42-5.42 5.42 5.42 0 0 1 5.42-5.419C6.58 6.201 9.074 4.413 12 4.413c3.718 0 6.763 2.883 7.045 6.536l.542-.033a4.335 4.335 0 0 1 4.335 4.336 4.335 4.335 0 0 1-4.335 4.335H5.497m14.09-6.503h-2.168V12A5.42 5.42 0 0 0 12 6.58a5.423 5.423 0 0 0-5.354 4.542 3.372 3.372 0 0 0-1.15-.206 3.252 3.252 0 0 0-3.25 3.252 3.252 3.252 0 0 0 3.25 3.251h14.09a2.168 2.168 0 0 0 2.169-2.167 2.168 2.168 0 0 0-2.168-2.168z" fill="#fff"/></svg>