<svg xmlns="http://www.w3.org/2000/svg" width="24" height="24" viewBox="0 0 24 24"><path d="M12 1.234l2.859 4.091A8.351 8.351 0 0 0 12 4.823c-1.005 0-1.974.18-2.859.502L12 1.235M1.641 7.214l4.976-.418A8.613 8.613 0 0 0 4.751 9.01c-.526.885-.825 1.794-.993 2.739L1.641 7.215m20.706 0L20.23 11.75a8.401 8.401 0 0 0-.993-2.74 8.63 8.63 0 0 0-1.854-2.224m-2.99 10a1.196 1.196 0 0 0-1.197-1.196H1.234a1.196 1.196 0 0 0-1.196 1.196 1.196 1.196 0 0 0 1.196 1.196h11.962a1.196 1.196 0 0 0 1.196-1.196m9.57 0a1.196 1.196 0 0 0-1.196-1.196H17.98a1.196 1.196 0 0 0-1.196 1.196 1.196 1.196 0 0 0 1.196 1.196h4.785a1.196 1.196 0 0 0 1.196-1.196M9.608 21.57a1.196 1.196 0 0 0 1.196 1.196H21.57a1.196 1.196 0 0 0 1.196-1.196 1.196 1.196 0 0 0-1.196-1.197H10.804a1.196 1.196 0 0 0-1.196 1.197m-8.374 0a1.196 1.196 0 0 0 1.196 1.196h3.59a1.196 1.196 0 0 0 1.195-1.196 1.196 1.196 0 0 0-1.196-1.197H2.43a1.196 1.196 0 0 0-1.196 1.197M12 9.608a3.589 3.589 0 0 1 3.589 3.588h2.392A5.98 5.98 0 0 0 12 7.216a5.98 5.98 0 0 0-5.98 5.98H8.41A3.589 3.589 0 0 1 12 9.608z" fill="#fff"/></svg>