<svg xmlns="http://www.w3.org/2000/svg" width="24" height="24" viewBox="0 0 24 24"><path d="M2.222 15.26h10.864a1.086 1.086 0 0 1 1.087 1.086 1.086 1.086 0 0 1-1.087 1.086H2.222a1.086 1.086 0 0 1-1.086-1.086 1.086 1.086 0 0 1 1.086-1.087m14.124 0h5.432a1.086 1.086 0 0 1 1.086 1.087 1.086 1.086 0 0 1-1.086 1.086h-5.432a1.086 1.086 0 0 1-1.087-1.086 1.086 1.086 0 0 1 1.087-1.087M.049 12a5.432 5.432 0 0 1 5.432-5.432C6.568 4.015 9.067 2.222 12 2.222c3.726 0 6.78 2.89 7.062 6.551l.543-.032c2.38 0 4.313 1.912 4.346 4.345h-2.173a2.173 2.173 0 0 0-2.173-2.172h-2.173V9.827A5.432 5.432 0 0 0 12 4.395a5.436 5.436 0 0 0-5.367 4.552 3.38 3.38 0 0 0-1.152-.206A3.26 3.26 0 0 0 2.222 12c0 .38.065.75.185 1.086H.158L.049 12m2.173 7.605h2.173a1.086 1.086 0 0 1 1.086 1.086 1.086 1.086 0 0 1-1.086 1.087H2.222a1.086 1.086 0 0 1-1.086-1.087 1.086 1.086 0 0 1 1.086-1.086m5.432 0h14.124a1.086 1.086 0 0 1 1.086 1.086 1.086 1.086 0 0 1-1.086 1.087H7.654a1.086 1.086 0 0 1-1.086-1.087 1.086 1.086 0 0 1 1.086-1.086z" fill="#fff"/></svg>