<svg xmlns="http://www.w3.org/2000/svg" width="24" height="24" viewBox="0 0 24 24"><path d="M12 .06l-1.088 1.22S9.055 3.382 7.184 6.11c-1.872 2.727-3.888 5.992-3.888 9.125A8.704 8.704 0 0 0 12 23.939a8.704 8.704 0 0 0 8.704-8.704c0-3.133-2.016-6.398-3.888-9.125-1.871-2.727-3.728-4.83-3.728-4.83L12 .06m0 4.541c.638.755 1.219 1.379 2.437 3.148 1.755 2.554 3.366 5.803 3.366 7.486A5.783 5.783 0 0 1 12 21.038a5.783 5.783 0 0 1-5.803-5.803c0-1.683 1.61-4.932 3.366-7.486C10.78 5.98 11.362 5.356 12 4.601z" fill="#fff"/></svg>