<svg xmlns="http://www.w3.org/2000/svg" width="24" height="24" viewBox="0 0 24 24"><path d="M3.837 13.73c.544.305.696.991.402 1.492-.305.522-.947.696-1.49.403h0a5.42 5.42 0 0 1-2.722-4.713 5.442 5.442 0 0 1 5.442-5.443C6.558 2.911 9.061 1.115 12 1.115c3.733 0 6.792 2.896 7.075 6.564l.544-.033A4.354 4.354 0 0 1 23.973 12a4.354 4.354 0 0 1-4.354 4.354 1.088 1.088 0 0 1-1.088-1.089 1.088 1.088 0 0 1 1.088-1.088A2.177 2.177 0 0 0 21.796 12a2.177 2.177 0 0 0-2.177-2.177h-2.177V8.735A5.442 5.442 0 0 0 12 3.292a5.446 5.446 0 0 0-5.377 4.561 3.386 3.386 0 0 0-1.154-.207 3.265 3.265 0 0 0-3.265 3.266c0 1.208.653 2.264 1.633 2.83v-.011m5.442-2.82h3.265l-2.177 4.354h2.177l-4.082 7.62.817-5.443H6.558l2.72-6.53m8.709 8.348c0 1.404-1.089 2.536-2.45 2.536-1.36 0-2.449-1.132-2.449-2.536 0-1.687 2.45-4.539 2.45-4.539s2.449 2.852 2.449 4.539z" fill="#fff"/></svg>