<svg xmlns="http://www.w3.org/2000/svg" width="24" height="24" viewBox="0 0 24 24"><path d="M13.38 4.66c2.69 1.173 4.114 4.057 3.624 6.827a6.842 6.842 0 0 1 2.371 5.175v.194c.353-.125.741-.194 1.14-.194a3.42 3.42 0 0 1 3.42 3.42 3.42 3.42 0 0 1-3.42 3.42H5.696a4.56 4.56 0 0 1-4.56-4.56 4.56 4.56 0 0 1 4.56-4.56h.308c-1.447-1.766-1.903-4.286-.877-6.543 1.39-3.146 5.095-4.582 8.252-3.18m-.923 2.086c-2.018-.912-4.377.012-5.266 2.018a3.977 3.977 0 0 0 .114 3.488 6.825 6.825 0 0 1 5.232-2.428c.798 0 1.573.137 2.28.387a3.997 3.997 0 0 0-2.36-3.465m1.847-4.172a8.964 8.964 0 0 0-1.904-.593L15.237.5l1.026 3.294a8.744 8.744 0 0 0-1.96-1.22m-8.504.912a7.964 7.964 0 0 0-1.47 1.357l.125-3.204 3.374.776c-.707.239-1.39.604-2.029 1.071m13.576 6.007a11.047 11.047 0 0 0-.467-1.949l2.713 1.71-2.337 2.542a9.65 9.65 0 0 0 .091-2.303M2.322 11.305c.08.684.228 1.333.445 1.937l-2.702-1.71 2.326-2.53a9.104 9.104 0 0 0-.069 2.303m18.193 7.637h-3.42v-2.28a4.56 4.56 0 0 0-4.56-4.56 4.56 4.56 0 0 0-4.559 4.56h-2.28a2.28 2.28 0 0 0-2.28 2.28 2.28 2.28 0 0 0 2.28 2.28h14.819a1.14 1.14 0 0 0 1.14-1.14 1.14 1.14 0 0 0-1.14-1.14z" fill="#fff"/></svg>