<svg xmlns="http://www.w3.org/2000/svg" width="24" height="24" viewBox="0 0 24 24"><path d="M22.811 10.611c-.296.023-.569.035-.842.035a8.574 8.574 0 0 1-6.089-2.527 8.556 8.556 0 0 1-2.492-6.931c.057-.535-.57-1.138-1.15-1.138a.785.785 0 0 0-.444.136c-.364.273-.751.592-1.092.933-2.63 2.618-3.199 6.51-1.73 9.697a6.236 6.236 0 0 0-3.586 4.098l-.785-.069A4.553 4.553 0 0 0 .05 19.398 4.553 4.553 0 0 0 4.6 23.95h14.796a3.414 3.414 0 0 0 3.414-3.414 3.414 3.414 0 0 0-3.414-3.414 3.35 3.35 0 0 0-1.798.512l.09-1.081c0-.25 0-.513-.045-.763a8.48 8.48 0 0 0 5.236-2.493c.364-.341.66-.728.933-1.092.444-.626-.262-1.594-.956-1.594m-3.46 8.787a1.138 1.138 0 0 1 1.138 1.138 1.138 1.138 0 0 1-1.138 1.138H4.601a2.276 2.276 0 0 1-2.276-2.276A2.276 2.276 0 0 1 4.6 17.122h2.846v-.57c0-1.775 1.172-3.255 2.777-3.778.182-.057.364-.102.557-.137.205-.034.421-.068.649-.068.262 0 .512.034.751.08.08.011.16.034.24.068.147.034.318.08.466.137.09.034.182.08.25.125.148.057.273.125.387.205.091.057.182.113.262.182.114.08.205.16.307.25.08.091.182.148.24.228.09.09.159.193.238.284.069.091.148.182.205.285.068.102.114.205.17.319.058.113.126.204.172.318.193.467.295.968.295 1.503v2.845m1.514-5.85a6.27 6.27 0 0 0-5.497-3.255h-.148a6.255 6.255 0 0 1-.83-3.085c0-1.115.284-2.185.819-3.118a10.68 10.68 0 0 0 3.004 5.634 10.638 10.638 0 0 0 5.634 3.004 6.17 6.17 0 0 1-2.982.82z" fill="#fff"/></svg>