<svg xmlns="http://www.w3.org/2000/svg" width="24" height="24" viewBox="0 0 24 24"><path d="M8.754 12.165c.573.152.92.747.768 1.32l-1.407 5.227c-.151.585-.747.92-1.32.769a1.047 1.047 0 0 1-.747-1.32l1.385-5.227c.152-.585.747-.92 1.32-.769m4.33 0c.573.152.919.747.767 1.32l-2.24 8.366c-.151.595-.746.92-1.33.768-.574-.173-.92-.747-.769-1.331l2.25-8.354c.152-.585.748-.92 1.321-.769m4.329 0c.573.152.92.747.768 1.32l-1.407 5.227c-.151.585-.746.92-1.32.769a1.047 1.047 0 0 1-.747-1.32l1.386-5.227c.151-.585.746-.92 1.32-.769m0-2.164V8.92A5.41 5.41 0 0 0 12 3.509a5.415 5.415 0 0 0-5.346 4.533 3.367 3.367 0 0 0-1.147-.205 3.246 3.246 0 0 0-3.246 3.246c0 1.201.649 2.251 1.623 2.814v-.01c.541.302.692.984.4 1.482a1.085 1.085 0 0 1-1.482.39v.01a5.39 5.39 0 0 1-2.706-4.686 5.41 5.41 0 0 1 5.411-5.41C6.59 3.13 9.078 1.344 12 1.344c3.712 0 6.753 2.878 7.034 6.525l.541-.032a4.329 4.329 0 0 1 4.329 4.328 4.28 4.28 0 0 1-2.165 3.745h0c-.54.292-1.18.119-1.482-.4-.292-.52-.14-1.18.4-1.483v.01a2.147 2.147 0 0 0 1.082-1.872 2.164 2.164 0 0 0-2.164-2.164h-2.164z" fill="#fff"/></svg>