<svg xmlns="http://www.w3.org/2000/svg" width="24" height="24" viewBox="0 0 24 24"><path d="M19.05 19.759c0 1.4-1.084 2.527-2.44 2.527-1.356 0-2.44-1.128-2.44-2.527 0-1.681 2.44-4.523 2.44-4.523s2.44 2.842 2.44 4.523M3.323 18.338a1.112 1.112 0 0 1 .791-1.356l2.463-.661-1.812-1.78a1.126 1.126 0 0 1 0-1.583c.434-.434 1.16-.434 1.584 0l1.8 1.79.64-2.44c.152-.608.77-.955 1.356-.793.608.152.955.77.77 1.367l-.629 2.44 2.44-.628a1.074 1.074 0 0 1 1.367.77 1.095 1.095 0 0 1-.791 1.355l-2.44.64 1.789 1.801c.434.423.434 1.15 0 1.584a1.113 1.113 0 0 1-1.573 0l-1.79-1.812-.661 2.462c-.152.608-.77.944-1.356.792-.608-.152-.944-.77-.792-1.366l.64-2.43-2.43.64c-.596.152-1.214-.185-1.366-.792M.069 11.44a5.423 5.423 0 0 1 5.423-5.424C6.577 3.467 9.072 1.678 12 1.678c3.72 0 6.768 2.885 7.05 6.54l.543-.032a4.339 4.339 0 0 1 4.338 4.338 4.339 4.339 0 0 1-4.338 4.339 1.085 1.085 0 0 1-1.085-1.085 1.085 1.085 0 0 1 1.085-1.084 2.17 2.17 0 0 0 2.169-2.17 2.17 2.17 0 0 0-2.17-2.17h-2.169V9.27A5.423 5.423 0 0 0 12 3.847a5.427 5.427 0 0 0-5.358 4.545 3.375 3.375 0 0 0-1.15-.206 3.254 3.254 0 0 0-3.254 3.254c0 .921.38 1.746.987 2.342.39.423.38 1.085-.033 1.497a1.08 1.08 0 0 1-1.529 0A5.41 5.41 0 0 1 .07 11.44z" fill="#fff"/></svg>