<svg xmlns="http://www.w3.org/2000/svg" width="24" height="24" viewBox="0 0 24 24"><path d="M5.489 13.702a1.085 1.085 0 0 1 1.085 1.085 1.085 1.085 0 0 1-1.085 1.085 5.426 5.426 0 0 1-5.426-5.426A5.426 5.426 0 0 1 5.489 5.02C6.574 2.47 9.069.68 12 .68c3.722 0 6.772 2.886 7.054 6.543l.543-.032a4.34 4.34 0 0 1 4.34 4.34 4.34 4.34 0 0 1-4.34 4.341H18.51a1.085 1.085 0 0 1-1.085-1.085 1.085 1.085 0 0 1 1.085-1.085h1.086a2.17 2.17 0 0 0 2.17-2.17 2.17 2.17 0 0 0-2.17-2.171h-2.17V8.276A5.426 5.426 0 0 0 12 2.85a5.43 5.43 0 0 0-5.361 4.547 3.376 3.376 0 0 0-1.15-.206 3.256 3.256 0 0 0-3.256 3.255 3.256 3.256 0 0 0 3.256 3.256m2.04 4.417l2.377-.619-1.748-1.758c-.423-.412-.423-1.107 0-1.54a1.094 1.094 0 0 1 1.541 0l1.758 1.746.619-2.376a1.085 1.085 0 0 1 2.094.564l-.64 2.377 2.377-.64a1.085 1.085 0 1 1 .564 2.094l-2.377.618 1.748 1.758a1.094 1.094 0 0 1 0 1.541 1.094 1.094 0 0 1-1.541 0l-1.758-1.747-.619 2.377a1.085 1.085 0 0 1-2.094-.564l.64-2.377-2.377.64a1.085 1.085 0 1 1-.564-2.094z" fill="#fff"/></svg>