<svg xmlns="http://www.w3.org/2000/svg" width="24" height="24" viewBox="0 0 24 24"><path d="M12.006 6.039A5.961 5.961 0 0 1 17.967 12a5.961 5.961 0 0 1-5.961 5.961A5.961 5.961 0 0 1 6.045 12a5.961 5.961 0 0 1 5.961-5.961m0 2.384A3.577 3.577 0 0 0 8.429 12a3.577 3.577 0 0 0 3.577 3.577A3.577 3.577 0 0 0 15.583 12a3.577 3.577 0 0 0-3.577-3.577m0-8.346l2.85 4.078a8.324 8.324 0 0 0-2.85-.5 8.324 8.324 0 0 0-2.85.5l2.85-4.078M1.681 6.04l4.96-.418a8.585 8.585 0 0 0-1.86 2.206c-.525.882-.823 1.788-.99 2.73L1.681 6.04m.024 11.922l2.098-4.495c.167.919.489 1.848.99 2.707a8.502 8.502 0 0 0 1.848 2.23l-4.936-.442M22.319 6.04l-2.11 4.518a8.374 8.374 0 0 0-.99-2.73 8.602 8.602 0 0 0-1.848-2.218l4.948.43m-.012 11.922l-4.936.43a8.806 8.806 0 0 0 1.836-2.218c.501-.87.823-1.788.99-2.73l2.11 4.518m-10.301 5.962L9.133 19.82a8.367 8.367 0 0 0 2.873.525c.978 0 1.943-.203 2.826-.525l-2.826 4.102z" fill="#fff"/></svg>