<svg xmlns="http://www.w3.org/2000/svg" width="24" height="24" viewBox="0 0 24 24"><path d="M18.948 3.579L16.077 5.78l1.033 3.473L14.124 7.2 11.14 9.254l1.033-3.473L9.3 3.579l3.62-.102L14.125.07l1.203 3.406 3.621.102m3.973 7.844L21.06 12.84l.67 2.248-1.93-1.328-1.93 1.328.67-2.248-1.862-1.418 2.339-.057.783-2.214.783 2.214 2.338.057m-2.588 5.618c.942-.09 1.953 1.25 1.351 2.1-.363.511-.75.988-1.226 1.442-4.438 4.461-11.624 4.461-16.05 0-4.439-4.427-4.439-11.624 0-16.05.453-.455.93-.863 1.441-1.227.851-.601 2.19.409 2.1 1.351a11.32 11.32 0 0 0 3.28 9.104 11.306 11.306 0 0 0 9.104 3.28m-1.861 2.293a13.713 13.713 0 0 1-8.854-3.939A13.702 13.702 0 0 1 5.656 6.52c-3.19 3.564-3.065 9.035.352 12.463 3.428 3.417 8.9 3.542 12.464.352z" fill="#fff"/></svg>