<svg xmlns="http://www.w3.org/2000/svg" width="24" height="24" viewBox="0 0 24 24"><path d="M1.857 9.613A1.193 1.193 0 0 1 .663 8.42a1.193 1.193 0 0 1 1.194-1.193h9.546A2.387 2.387 0 0 0 13.79 4.84a2.387 2.387 0 0 0-2.387-2.387c-.656 0-1.253.263-1.682.704-.466.49-1.23.49-1.695 0a1.203 1.203 0 0 1 0-1.694A4.803 4.803 0 0 1 11.403.067a4.773 4.773 0 0 1 4.774 4.773 4.773 4.773 0 0 1-4.774 4.773H1.857M19.757 12a1.193 1.193 0 0 0 1.193-1.193 1.193 1.193 0 0 0-1.193-1.194 1.19 1.19 0 0 0-.848.346 1.188 1.188 0 0 1-1.682 0 1.21 1.21 0 0 1 0-1.682 3.571 3.571 0 0 1 2.53-1.05 3.58 3.58 0 0 1 3.58 3.58 3.58 3.58 0 0 1-3.58 3.58H3.05a1.193 1.193 0 0 1-1.193-1.194A1.193 1.193 0 0 1 3.05 12h16.707m-1.194 7.16H1.857a1.193 1.193 0 0 1-1.194-1.193 1.193 1.193 0 0 1 1.194-1.194h16.706a3.58 3.58 0 0 1 3.58 3.58 3.58 3.58 0 0 1-3.58 3.58c-.99 0-1.885-.405-2.53-1.05a1.21 1.21 0 0 1 0-1.682 1.188 1.188 0 0 1 1.683 0c.215.214.513.346.847.346a1.193 1.193 0 0 0 1.194-1.194 1.193 1.193 0 0 0-1.194-1.193z" fill="#fff"/></svg>