<svg xmlns="http://www.w3.org/2000/svg" width="24" height="24" viewBox="0 0 24 24"><path d="M14.72 8.737h2.175v2.175H14.72V8.737m2.175-4.352H14.72v2.176h2.175V4.385m-6.527 10.878h2.176v-2.175h-2.176v2.175m2.176-10.878h-2.176v2.176h2.176V4.385m-2.176 6.527h2.176V8.737h-2.176v2.175M8.193 4.385H6.017v2.176h2.176V4.385m0 4.352H6.017v2.175h2.176V8.737M14.23 21.79h-1.686v-3.807h-2.176v3.807H3.841V2.21h15.23v8.735a5.748 5.748 0 0 1 2.175.653V.034H1.666v23.932h14.043c-.446-.61-.99-1.349-1.479-2.176m-8.213-2.175h2.176v-2.176H6.017v2.176m2.176-6.527H6.017v2.175h2.176v-2.175m14.141 3.807c0 2.828-3.807 7.07-3.807 7.07s-3.807-4.242-3.807-7.07c0-2.067 1.74-3.807 3.807-3.807s3.807 1.74 3.807 3.807m-2.502.109c0-.653-.652-1.305-1.305-1.305s-1.306.543-1.306 1.305c0 .653.544 1.305 1.306 1.305s1.414-.652 1.305-1.305z"/></svg>