<svg xmlns="http://www.w3.org/2000/svg" width="24" height="24" viewBox="0 0 24 24"><path d="M17.937 6.063h-4.75v2.256h4.75c2.031 0 3.682 1.65 3.682 3.681 0 1.698-1.164 3.123-2.743 3.562l1.733 1.71c1.936-.985 3.266-2.956 3.266-5.272a5.937 5.937 0 0 0-5.938-5.937m-1.187 4.75h-2.6l2.374 2.374h.226v-2.374M.125 2.82l3.693 3.693A5.927 5.927 0 0 0 .125 12a5.937 5.937 0 0 0 5.938 5.937h4.75v-2.256h-4.75A3.684 3.684 0 0 1 2.38 12 3.677 3.677 0 0 1 5.66 8.354l2.458 2.458H7.25v2.376h3.242l2.695 2.695v2.055h2.055l4.762 4.75L21.5 21.19 1.633 1.313.125 2.82z"/></svg>