<svg xmlns="http://www.w3.org/2000/svg" width="24" height="24" viewBox="0 0 24 24"><path d="M12 7.227A4.773 4.773 0 0 1 16.773 12 4.773 4.773 0 0 1 12 16.773 4.773 4.773 0 0 1 7.227 12 4.773 4.773 0 0 1 12 7.227m0 2.386A2.387 2.387 0 0 0 9.613 12 2.387 2.387 0 0 0 12 14.387 2.387 2.387 0 0 0 14.387 12 2.387 2.387 0 0 0 12 9.613m-2.387 14.32a.603.603 0 0 1-.596-.502l-.442-3.162c-.751-.298-1.396-.704-2.016-1.181l-2.971 1.205a.6.6 0 0 1-.728-.262L.473 15.9a.588.588 0 0 1 .143-.763l2.518-1.98L3.051 12l.083-1.193L.616 8.862a.588.588 0 0 1-.143-.764L2.86 3.97c.143-.262.465-.37.728-.262L6.558 4.9c.621-.465 1.266-.87 2.017-1.17L9.017.57a.603.603 0 0 1 .596-.502h4.774c.298 0 .548.215.596.502l.442 3.162c.751.298 1.396.704 2.016 1.17l2.971-1.194a.587.587 0 0 1 .728.262l2.387 4.13a.588.588 0 0 1-.143.763l-2.518 1.945.083 1.193-.083 1.193 2.518 1.945a.588.588 0 0 1 .143.764L21.14 20.03c-.143.262-.465.37-.728.262l-2.97-1.193c-.621.465-1.266.87-2.017 1.17l-.442 3.161a.603.603 0 0 1-.596.502H9.613m1.492-21.479l-.441 3.114a6.554 6.554 0 0 0-3.616 2.124l-2.876-1.24-.895 1.55 2.518 1.85a6.623 6.623 0 0 0 0 4.296l-2.53 1.861.895 1.552 2.9-1.241a6.496 6.496 0 0 0 3.592 2.1l.441 3.126h1.814l.441-3.114a6.584 6.584 0 0 0 3.592-2.112l2.9 1.24.895-1.55-2.53-1.85a6.658 6.658 0 0 0 0-4.308l2.518-1.85-.895-1.55-2.876 1.24a6.468 6.468 0 0 0-3.616-2.112l-.441-3.126h-1.79z"/></svg>